<svg width="12" height="12" viewBox="0 0 12 12" fill="none" xmlns="http://www.w3.org/2000/svg">
<g opacity="0.4" clip-path="url(#clip0)">
<path d="M10.0919 8.08066C10.261 7.91718 10.261 7.64509 10.0919 7.4759C9.92837 7.31242 9.65629 7.31242 9.49319 7.4759L6.42669 10.5424L6.42669 0.423372C6.42631 0.187488 6.23882 -1.73968e-07 6.00294 -1.84279e-07C5.76705 -1.9459e-07 5.57347 0.187488 5.57347 0.423372L5.57347 10.5424L2.51269 7.4759C2.34349 7.31242 2.07102 7.31242 1.90792 7.4759C1.73873 7.64509 1.73873 7.91756 1.90792 8.08066L5.70036 11.8731C5.86384 12.0423 6.13593 12.0423 6.29903 11.8731L10.0919 8.08066Z" fill="#1E201D"/>
</g>
<defs>
<clipPath id="clip0">
<rect width="12" height="12" fill="white" transform="translate(12) rotate(90)"/>
</clipPath>
</defs>
</svg>
