<svg width="168" height="52" viewBox="0 0 168 52" fill="none" xmlns="http://www.w3.org/2000/svg">
<path d="M76.7272 30.0971C76.5921 30.4516 76.474 30.8146 76.3727 31.186C76.2714 31.5405 76.2039 31.895 76.1701 32.2496C74.8027 32.9417 73.0807 33.2878 71.0043 33.2878C69.5355 33.2878 68.2187 33.0852 67.0539 32.68C65.9059 32.258 64.9268 31.6756 64.1165 30.9328C63.323 30.1731 62.7153 29.2784 62.2932 28.2486C61.8712 27.2188 61.6602 26.1046 61.6602 24.906C61.6602 23.1502 61.9303 21.6646 62.4705 20.4492C63.0276 19.2168 63.7619 18.2208 64.6736 17.4611C65.6021 16.6845 66.6741 16.119 67.8896 15.7644C69.105 15.4099 70.3796 15.2327 71.7133 15.2327C72.1522 15.2327 72.6165 15.2664 73.106 15.334C73.5956 15.4015 74.0683 15.4943 74.5241 15.6125C74.9799 15.7138 75.4104 15.8404 75.8156 15.9923C76.2376 16.1443 76.5921 16.3047 76.8791 16.4735C76.7103 16.8955 76.5753 17.326 76.474 17.7649C76.3896 18.187 76.3305 18.6175 76.2967 19.0564H75.9422C75.3007 18.2461 74.6423 17.6721 73.967 17.3345C73.2917 16.9799 72.4983 16.8027 71.5867 16.8027C70.9114 16.8027 70.2277 16.9546 69.5355 17.2585C68.8603 17.5624 68.2441 18.0266 67.687 18.6512C67.1299 19.2759 66.6741 20.0778 66.3195 21.0569C65.9819 22.0192 65.8131 23.1756 65.8131 24.5261C65.8131 25.826 65.9903 26.9402 66.3449 27.8687C66.6994 28.7803 67.1552 29.5316 67.7123 30.1224C68.2863 30.6964 68.9278 31.1185 69.6368 31.3886C70.3627 31.6587 71.0887 31.7937 71.8146 31.7937C72.2197 31.7937 72.6333 31.7515 73.0554 31.6671C73.4774 31.5658 73.891 31.4392 74.2962 31.2873C74.7014 31.1185 75.0812 30.9159 75.4357 30.6795C75.8071 30.4432 76.1279 30.1815 76.398 29.8945L76.7272 30.0971Z" fill="white"/>
<path d="M87.6664 20.3225C87.6664 19.5797 87.5905 18.9889 87.4385 18.5499C87.2866 18.111 87.0502 17.7818 86.7295 17.5624C86.4256 17.326 86.0204 17.1741 85.514 17.1065C85.0244 17.039 84.4336 17.0053 83.7414 17.0053C83.6908 19.3012 83.6654 21.5971 83.6654 23.893C83.7667 23.9099 83.8596 23.9268 83.944 23.9437C84.0453 23.9437 84.1381 23.9437 84.2225 23.9437C85.3367 23.9437 86.1893 23.6483 86.7801 23.0574C87.371 22.4497 87.6664 21.538 87.6664 20.3225ZM83.6654 24.9819V26.0202C83.6654 27.4214 83.6823 28.6706 83.7161 29.7679C83.7498 30.8484 83.8005 31.9119 83.868 32.9586C83.581 32.9248 83.2687 32.9079 82.9311 32.9079C82.5934 32.9079 82.2136 32.9079 81.7915 32.9079C81.3695 32.9079 80.9897 32.9079 80.652 32.9079C80.3144 32.9079 80.0021 32.9248 79.7151 32.9586C79.7826 31.9119 79.8333 30.8484 79.867 29.7679C79.9008 28.6706 79.9177 27.4214 79.9177 26.0202V22.5763C79.9177 21.1751 79.9008 19.9343 79.867 18.8538C79.8333 17.7565 79.7826 16.6592 79.7151 15.5619C80.0021 15.5956 80.3144 15.6294 80.652 15.6632C80.9897 15.68 81.3695 15.6885 81.7915 15.6885C82.2474 15.6885 82.7623 15.6716 83.3362 15.6378C83.9271 15.5872 84.653 15.5619 85.514 15.5619C86.1555 15.5619 86.7042 15.5787 87.16 15.6125C87.6158 15.6463 88.0041 15.6969 88.3248 15.7644C88.6625 15.832 88.9494 15.9248 89.1858 16.043C89.439 16.1443 89.6754 16.2709 89.8948 16.4228C90.4013 16.7942 90.798 17.2585 91.085 17.8156C91.3889 18.3558 91.5408 19.0058 91.5408 19.7654C91.5408 20.9978 91.2032 22.0023 90.5279 22.7788C89.8526 23.5554 88.8819 24.1041 87.6158 24.4248C88.4261 25.8598 89.2955 27.2947 90.224 28.7297C91.1525 30.1478 92.081 31.5574 93.0095 32.9586C92.6212 32.9248 92.2414 32.9079 91.87 32.9079C91.4986 32.9079 91.1188 32.9079 90.7305 32.9079C90.3422 32.9079 89.9539 32.9079 89.5656 32.9079C89.1942 32.9079 88.8144 32.9248 88.4261 32.9586L83.8933 24.9819H83.6654Z" fill="white"/>
<path d="M109.199 23.7411C109.199 22.6438 109.064 21.6646 108.794 20.8037C108.524 19.9258 108.144 19.183 107.654 18.5753C107.182 17.9675 106.599 17.5033 105.907 17.1825C105.232 16.8449 104.489 16.6761 103.679 16.6761C102.818 16.6761 102.041 16.8871 101.349 17.3091C100.674 17.7143 100.1 18.2714 99.6271 18.9804C99.1544 19.6895 98.7914 20.5251 98.5382 21.4874C98.3018 22.4328 98.1837 23.4457 98.1837 24.5261C98.1837 25.8767 98.3272 27.0162 98.6142 27.9447C98.9011 28.8732 99.2894 29.6244 99.779 30.1984C100.269 30.7555 100.834 31.1607 101.476 31.4139C102.117 31.6671 102.792 31.7937 103.501 31.7937C104.261 31.7937 104.987 31.6334 105.679 31.3126C106.371 30.9919 106.971 30.5023 107.477 29.8439C108 29.1855 108.414 28.3499 108.718 27.3369C109.039 26.324 109.199 25.1254 109.199 23.7411ZM94.0307 24.2982C94.0307 23.049 94.2586 21.8757 94.7145 20.7783C95.1871 19.681 95.8455 18.7188 96.6896 17.8916C97.5337 17.0643 98.5551 16.4144 99.7537 15.9417C100.952 15.469 102.286 15.2327 103.755 15.2327C105.105 15.2327 106.363 15.4184 107.528 15.7898C108.693 16.1612 109.706 16.7183 110.567 17.4611C111.427 18.2039 112.103 19.1493 112.592 20.2972C113.099 21.4283 113.352 22.7535 113.352 24.2729C113.352 25.539 113.107 26.7208 112.618 27.8181C112.145 28.9154 111.478 29.8777 110.617 30.7049C109.773 31.5152 108.76 32.1483 107.578 32.6041C106.397 33.0599 105.097 33.2878 103.679 33.2878C102.345 33.2878 101.087 33.1274 99.9056 32.8067C98.7408 32.469 97.7194 31.9372 96.8416 31.2113C95.9806 30.4685 95.2969 29.5316 94.7904 28.4005C94.284 27.2525 94.0307 25.8851 94.0307 24.2982Z" fill="white"/>
<path d="M116.72 20.6011C116.72 19.4362 116.703 18.4571 116.669 17.6636C116.636 16.8702 116.61 16.1696 116.594 15.5619C117.066 15.6463 117.446 15.6885 117.733 15.6885C118.02 15.6885 118.4 15.6463 118.873 15.5619C120.713 17.6046 122.527 19.6135 124.317 21.5887C126.123 23.5639 127.972 25.5728 129.863 27.6155V22.9561C129.863 22.1289 129.854 21.3186 129.837 20.5251C129.837 19.7148 129.829 18.972 129.812 18.2967C129.812 17.6214 129.795 17.039 129.761 16.5494C129.744 16.0599 129.719 15.7307 129.685 15.5619C130.158 15.6463 130.538 15.6885 130.825 15.6885C131.112 15.6885 131.492 15.6463 131.964 15.5619C131.88 17.0981 131.812 18.4909 131.762 19.7401C131.711 20.9725 131.669 22.1373 131.635 23.2347C131.601 24.332 131.576 25.4209 131.559 26.5013C131.559 27.5648 131.559 28.7044 131.559 29.9199V32.9586C131.222 32.9248 130.876 32.9079 130.521 32.9079C130.15 32.9079 129.82 32.9248 129.533 32.9586C126.056 28.907 122.367 24.83 118.467 20.7277C118.451 21.2173 118.434 21.7069 118.417 22.1964C118.417 22.686 118.417 23.184 118.417 23.6905V26.6279C118.417 27.6408 118.417 28.5018 118.417 29.2108C118.434 29.9199 118.451 30.5192 118.467 31.0087C118.484 31.4983 118.501 31.9035 118.518 32.2242C118.535 32.5281 118.552 32.7729 118.569 32.9586C118.366 32.9248 118.164 32.9079 117.961 32.9079C117.758 32.9079 117.564 32.9079 117.379 32.9079C116.99 32.9079 116.602 32.9248 116.214 32.9586C116.247 32.8235 116.29 32.3424 116.34 31.5152C116.391 30.688 116.442 29.6835 116.492 28.5018C116.56 27.3032 116.61 26.0117 116.644 24.6274C116.695 23.2262 116.72 21.8841 116.72 20.6011Z" fill="white"/>
<path d="M150.002 23.7411C150.002 22.6438 149.867 21.6646 149.597 20.8037C149.327 19.9258 148.947 19.183 148.458 18.5753C147.985 17.9675 147.403 17.5033 146.71 17.1825C146.035 16.8449 145.292 16.6761 144.482 16.6761C143.621 16.6761 142.844 16.8871 142.152 17.3091C141.477 17.7143 140.903 18.2714 140.43 18.9804C139.958 19.6895 139.595 20.5251 139.341 21.4874C139.105 22.4328 138.987 23.4457 138.987 24.5261C138.987 25.8767 139.13 27.0162 139.417 27.9447C139.704 28.8732 140.093 29.6244 140.582 30.1984C141.072 30.7555 141.637 31.1607 142.279 31.4139C142.92 31.6671 143.596 31.7937 144.305 31.7937C145.064 31.7937 145.79 31.6334 146.482 31.3126C147.175 30.9919 147.774 30.5023 148.28 29.8439C148.804 29.1855 149.217 28.3499 149.521 27.3369C149.842 26.324 150.002 25.1254 150.002 23.7411ZM134.834 24.2982C134.834 23.049 135.062 21.8757 135.518 20.7783C135.99 19.681 136.649 18.7188 137.493 17.8916C138.337 17.0643 139.358 16.4144 140.557 15.9417C141.756 15.469 143.089 15.2327 144.558 15.2327C145.908 15.2327 147.166 15.4184 148.331 15.7898C149.496 16.1612 150.509 16.7183 151.37 17.4611C152.231 18.2039 152.906 19.1493 153.396 20.2972C153.902 21.4283 154.155 22.7535 154.155 24.2729C154.155 25.539 153.91 26.7208 153.421 27.8181C152.948 28.9154 152.281 29.8777 151.42 30.7049C150.576 31.5152 149.563 32.1483 148.382 32.6041C147.2 33.0599 145.9 33.2878 144.482 33.2878C143.148 33.2878 141.891 33.1274 140.709 32.8067C139.544 32.469 138.523 31.9372 137.645 31.2113C136.784 30.4685 136.1 29.5316 135.594 28.4005C135.087 27.2525 134.834 25.8851 134.834 24.2982Z" fill="white"/>
<path d="M164.766 18.9804C164.225 17.5286 163.204 16.8027 161.702 16.8027C160.925 16.8027 160.292 17.0306 159.802 17.4864C159.313 17.9422 159.068 18.474 159.068 19.0817C159.068 19.7064 159.254 20.2212 159.625 20.6264C160.013 21.0147 160.495 21.3692 161.069 21.69C161.643 22.0107 162.259 22.323 162.917 22.6269C163.576 22.9139 164.192 23.2769 164.766 23.7158C165.34 24.1378 165.812 24.6612 166.184 25.2858C166.572 25.8935 166.766 26.6786 166.766 27.6408C166.766 28.4849 166.606 29.2615 166.285 29.9705C165.964 30.6627 165.508 31.262 164.918 31.7684C164.327 32.258 163.618 32.6378 162.791 32.9079C161.98 33.1612 161.069 33.2878 160.056 33.2878C159.144 33.2878 158.325 33.1865 157.599 32.9839C156.89 32.7982 156.35 32.5619 155.979 32.2749C156.148 31.684 156.291 31.1438 156.409 30.6542C156.527 30.1646 156.629 29.6329 156.713 29.0589H157.194C157.262 29.4303 157.388 29.7848 157.574 30.1224C157.76 30.4432 157.996 30.7302 158.283 30.9834C158.57 31.2366 158.916 31.4392 159.321 31.5912C159.726 31.7262 160.182 31.7937 160.689 31.7937C161.702 31.7937 162.444 31.5405 162.917 31.0341C163.407 30.5276 163.651 29.9199 163.651 29.2108C163.651 28.5693 163.466 28.046 163.094 27.6408C162.723 27.2357 162.259 26.8811 161.702 26.5773C161.145 26.2565 160.537 25.9526 159.878 25.6656C159.22 25.3618 158.612 24.9988 158.055 24.5768C157.498 24.1547 157.034 23.6398 156.662 23.0321C156.291 22.4074 156.105 21.614 156.105 20.6517C156.105 19.7739 156.257 18.9973 156.561 18.322C156.882 17.6468 157.304 17.0812 157.827 16.6254C158.351 16.1696 158.95 15.8235 159.625 15.5872C160.317 15.3508 161.043 15.2327 161.803 15.2327C162.715 15.2327 163.508 15.3424 164.183 15.5619C164.875 15.7813 165.466 16.0852 165.956 16.4735C165.804 16.8618 165.669 17.2416 165.551 17.613C165.449 17.9675 165.314 18.4233 165.146 18.9804H164.766Z" fill="white"/>
<g opacity="0.24">
<path d="M131.115 44.4576H132.451C132.376 43.923 132.217 43.4541 131.973 43.0508C131.729 42.6382 131.424 42.2958 131.058 42.0238C130.693 41.7519 130.275 41.5455 129.806 41.4048C129.337 41.2642 128.84 41.1938 128.315 41.1938C127.546 41.1938 126.861 41.3345 126.261 41.6159C125.67 41.8878 125.173 42.263 124.77 42.7413C124.376 43.2196 124.076 43.7824 123.87 44.4295C123.663 45.0673 123.56 45.7519 123.56 46.4835C123.56 47.215 123.654 47.8997 123.841 48.5374C124.038 49.1752 124.329 49.7285 124.714 50.1975C125.098 50.6664 125.581 51.0369 126.163 51.3088C126.744 51.5715 127.424 51.7028 128.203 51.7028C129.487 51.7028 130.5 51.3511 131.241 50.6476C131.982 49.9442 132.418 48.9595 132.55 47.6933H131.213C131.185 48.106 131.101 48.4905 130.96 48.8469C130.819 49.2033 130.622 49.5128 130.369 49.7754C130.125 50.0286 129.83 50.2303 129.483 50.3803C129.145 50.521 128.756 50.5914 128.315 50.5914C127.715 50.5914 127.199 50.4788 126.768 50.2537C126.336 50.0286 125.98 49.7285 125.698 49.3534C125.426 48.9688 125.225 48.5233 125.093 48.0169C124.962 47.5011 124.897 46.9571 124.897 46.385C124.897 45.8598 124.962 45.3533 125.093 44.8656C125.225 44.3779 125.426 43.9465 125.698 43.5713C125.98 43.1868 126.331 42.882 126.754 42.6569C127.185 42.4318 127.701 42.3193 128.301 42.3193C129.004 42.3193 129.609 42.4975 130.116 42.8539C130.632 43.2103 130.965 43.7448 131.115 44.4576Z" fill="white"/>
<path d="M134.205 41.433V51.4777H135.542V47.1869H138.805C139.134 47.1869 139.396 47.2385 139.593 47.3416C139.79 47.4354 139.95 47.5667 140.072 47.7355C140.194 47.895 140.283 48.0872 140.339 48.3123C140.395 48.528 140.442 48.7578 140.48 49.0017C140.526 49.2455 140.555 49.4941 140.564 49.7473C140.573 50.0005 140.583 50.2397 140.592 50.4648C140.602 50.6805 140.62 50.8774 140.648 51.0556C140.686 51.2338 140.752 51.3745 140.845 51.4777H142.337C142.196 51.3088 142.088 51.1166 142.013 50.9009C141.947 50.6758 141.896 50.4413 141.858 50.1975C141.821 49.9536 141.797 49.7051 141.788 49.4518C141.779 49.1986 141.764 48.9501 141.746 48.7062C141.718 48.4624 141.675 48.2279 141.619 48.0028C141.572 47.7777 141.493 47.5761 141.38 47.3979C141.277 47.2103 141.131 47.0509 140.944 46.9196C140.766 46.7883 140.531 46.6945 140.24 46.6382V46.6101C140.85 46.4413 141.291 46.1271 141.563 45.6675C141.844 45.2079 141.985 44.6734 141.985 44.0637C141.985 43.2478 141.713 42.6053 141.169 42.1364C140.634 41.6674 139.889 41.433 138.932 41.433H134.205ZM138.327 46.0614H135.542V42.5584H138.862C139.49 42.5584 139.945 42.7179 140.226 43.0368C140.508 43.3556 140.648 43.7683 140.648 44.2748C140.648 44.6405 140.583 44.9406 140.451 45.1751C140.33 45.4002 140.161 45.5831 139.945 45.7238C139.739 45.8551 139.495 45.9442 139.213 45.9911C138.932 46.038 138.637 46.0614 138.327 46.0614Z" fill="white"/>
<path d="M145.566 47.3275L147.268 42.6428H147.297L148.971 47.3275H145.566ZM146.565 41.433L142.654 51.4777H144.019L145.144 48.453H149.393L150.49 51.4777H151.967L148.042 41.433H146.565Z" fill="white"/>
<path d="M152.958 41.433V51.4777H154.295V46.8774H158.909V45.7519H154.295V42.5584H159.556V41.433H152.958Z" fill="white"/>
<path d="M163.315 42.5584V51.4777H164.652V42.5584H168V41.433H159.967V42.5584H163.315Z" fill="white"/>
</g>
<path d="M36.8745 2.22614L46.774 12.1256L43.592 15.3076L33.6925 5.40812L36.8745 2.22614Z" fill="#FF3E3E"/>
<path d="M5.4082 33.6924L15.3077 43.5919L12.1257 46.7739L2.22622 36.8744L5.4082 33.6924Z" fill="#FF3E3E"/>
<path d="M46.7739 36.8743L36.8744 46.7738L33.6924 43.5918L43.5919 33.6923L46.7739 36.8743Z" fill="#FF3E3E"/>
<path d="M15.3076 5.40808L5.40812 15.3076L2.22614 12.1256L12.1256 2.2261L15.3076 5.40808Z" fill="#FF3E3E"/>
<rect x="24.6182" y="1.54327" width="32.618" height="32.618" rx="3" transform="rotate(45 24.6182 1.54327)" stroke="white" stroke-width="2"/>
<path d="M30.2814 20.2242C30.0863 19.4139 29.6811 18.8062 29.0659 18.401C28.4656 17.9958 27.7603 17.7933 26.95 17.7933C26.1097 17.7933 25.4119 17.9658 24.8567 18.311C24.3014 18.6561 23.8513 19.1063 23.5061 19.6615C23.176 20.2167 22.9359 20.847 22.7858 21.5523C22.6508 22.2426 22.5757 22.9403 22.5607 23.6456C22.5607 24.3809 22.6133 25.1387 22.7183 25.9191C22.8233 26.6844 23.0259 27.3746 23.326 27.9899C23.6412 28.6051 24.0839 29.1153 24.6541 29.5205C25.2243 29.9107 25.9671 30.1057 26.8825 30.1057C27.4077 30.1057 27.8729 30.0457 28.2781 29.9257C28.6982 29.8056 29.0809 29.6481 29.426 29.453C29.7712 29.2579 30.0863 29.0478 30.3714 28.8227C30.6565 28.5976 30.9191 28.3725 31.1592 28.1475L31.857 28.5301C31.7219 28.9653 31.5944 29.408 31.4743 29.8581C31.3543 30.2933 31.2418 30.736 31.1367 31.1862C30.4614 31.4263 29.6961 31.6589 28.8408 31.884C28.0004 32.0941 27.0175 32.1991 25.8921 32.1991C24.6916 32.1991 23.5586 32.0265 22.4932 31.6814C21.4428 31.3212 20.5274 30.796 19.7471 30.1057C18.9668 29.4005 18.3515 28.5526 17.9013 27.5622C17.4512 26.5568 17.2261 25.4239 17.2261 24.1633C17.2261 22.8128 17.4662 21.6198 17.9464 20.5844C18.4266 19.534 19.0793 18.6486 19.9047 17.9283C20.745 17.208 21.7279 16.6678 22.8534 16.3077C23.9788 15.9325 25.1793 15.7449 26.4548 15.7449C27.3552 15.7449 28.263 15.85 29.1784 16.0601C30.1088 16.2551 31.0017 16.5177 31.857 16.8479C31.812 17.103 31.752 17.3581 31.6769 17.6132C31.6169 17.8533 31.5569 18.1009 31.4969 18.356C31.4218 18.6711 31.3618 18.9862 31.3168 19.3014C31.2718 19.6015 31.2267 19.9091 31.1817 20.2242H30.2814Z" fill="white"/>
</svg>
