<svg width="15" height="15" viewBox="0 0 15 15" fill="none" xmlns="http://www.w3.org/2000/svg">
<path d="M12.0552 15C11.4311 15 10.6774 14.8436 9.84845 14.5308C8.03116 13.8457 6.05393 12.4915 4.28103 10.7186C2.50763 8.94522 1.15349 6.96748 0.467838 5.15019C-0.155249 3.49787 -0.156763 2.14171 0.464306 1.52115C0.553607 1.43185 0.644421 1.33599 0.738263 1.2371C1.30484 0.64126 1.94508 -0.0292522 2.79369 0.00101919C3.37844 0.0252363 3.94502 0.388494 4.52522 1.11047C6.23959 3.24258 5.46666 4.0024 4.57214 4.8833L4.41422 5.0397C4.26791 5.18601 3.99143 5.86359 6.5635 8.43565C7.40302 9.27518 8.11894 9.88969 8.69107 10.2615C9.0513 10.4956 9.69558 10.8498 9.95995 10.5854L10.1189 10.425C10.9988 9.53248 11.7586 8.76208 13.8892 10.4749C14.6112 11.0551 14.9739 11.6212 14.9981 12.207C15.0329 13.0551 14.3574 13.6968 13.761 14.2629C13.6627 14.3567 13.5668 14.4476 13.4775 14.5364C13.1692 14.8451 12.6763 15 12.0552 15ZM2.73315 0.504534C2.13024 0.504534 1.58586 1.07767 1.10404 1.58472C1.00717 1.68663 0.913333 1.78552 0.821005 1.87785C0.358356 2.33999 0.405277 3.55438 0.940072 4.9726C1.601 6.7243 2.91427 8.63847 4.63823 10.3624C6.36169 12.0854 8.27484 13.3987 10.0271 14.0591C11.4453 14.5949 12.6597 14.6403 13.1213 14.1786C13.2136 14.0863 13.3125 13.9925 13.4144 13.8961C13.9326 13.4037 14.5203 12.8457 14.4946 12.2266C14.477 11.8013 14.1672 11.3437 13.5739 10.867C11.7984 9.43915 11.302 9.94317 10.4786 10.7782L10.3172 10.9411C9.92362 11.3351 9.28439 11.2479 8.41661 10.6838C7.81471 10.2923 7.07105 9.65559 6.2073 8.79134C4.07266 6.6572 3.39004 5.35099 4.05803 4.68149L4.21897 4.52256C5.05598 3.69918 5.56101 3.20222 4.1327 1.42579C3.65492 0.832979 3.19782 0.523201 2.7725 0.505039C2.75939 0.504534 2.74627 0.504534 2.73315 0.504534Z" fill="white"/>
</svg>
