<svg width="32" height="22" viewBox="0 0 32 22" fill="none" xmlns="http://www.w3.org/2000/svg">
<path d="M10.373 21.3281H5.42188V5.56641L0.558594 6.9873V3.2373L9.91895 0H10.373V21.3281Z" fill="#D2402F"/>
<path d="M17.0967 10.8984L18.4004 0H30.8662V3.83789H22.4141L21.9307 8.07129C22.2822 7.86621 22.7412 7.68555 23.3076 7.5293C23.8838 7.37305 24.4453 7.29492 24.9922 7.29492C27.1113 7.29492 28.7373 7.9248 29.8701 9.18457C31.0127 10.4346 31.584 12.1924 31.584 14.458C31.584 15.8252 31.2764 17.0654 30.6611 18.1787C30.0557 19.2822 29.2012 20.1318 28.0977 20.7275C26.9941 21.3232 25.6904 21.6211 24.1865 21.6211C22.8486 21.6211 21.5938 21.3477 20.4219 20.8008C19.25 20.2441 18.332 19.4873 17.668 18.5303C17.0039 17.5635 16.6768 16.4746 16.6865 15.2637H21.6377C21.6865 16.0449 21.9355 16.665 22.3848 17.124C22.834 17.583 23.4248 17.8125 24.1572 17.8125C25.8174 17.8125 26.6475 16.582 26.6475 14.1211C26.6475 11.8457 25.6318 10.708 23.6006 10.708C22.4482 10.708 21.5889 11.0791 21.0225 11.8213L17.0967 10.8984Z" fill="#D2402F"/>
</svg>
