<svg width="38" height="30" viewBox="0 0 38 30" fill="none" xmlns="http://www.w3.org/2000/svg">
<path d="M32.0589 16.8227L37.9099 28.8425C38.1479 29.3313 37.8978 29.7312 37.3541 29.7312H0.645915C0.102242 29.7312 -0.147925 29.3313 0.0900716 28.8425L5.9412 16.8227C6.03428 16.6315 6.28444 16.4751 6.49705 16.4751H11.5141C11.6687 16.4751 11.8775 16.5719 11.9787 16.6888C12.3191 17.0821 12.6658 17.4664 13.0116 17.8468C13.3399 18.2079 13.67 18.5736 13.9975 18.948H8.04343C7.83077 18.948 7.5806 19.1044 7.48759 19.2956L3.61147 27.2584H34.3884L30.5125 19.2956C30.4195 19.1044 30.1694 18.948 29.9566 18.948H23.9892C24.3166 18.5736 24.6468 18.2079 24.9751 17.8468C25.3219 17.4653 25.6705 17.0818 26.0117 16.6883C26.1128 16.5717 26.3212 16.4751 26.4755 16.4751H31.5032C31.7157 16.4751 31.9658 16.6314 32.0589 16.8227ZM27.6023 8.60852C27.6023 15.1763 22.1346 16.4081 19.5631 22.7197C19.3542 23.2326 18.6321 23.23 18.4231 22.7173C16.1035 17.0265 11.4293 15.466 10.535 10.3963C9.65446 5.40547 13.11 0.516632 18.1554 0.0397067C23.2867 -0.445352 27.6023 3.57762 27.6023 8.60852ZM23.5398 8.60852C23.5398 6.09779 21.5045 4.06243 18.9937 4.06243C16.4829 4.06243 14.4476 6.09779 14.4476 8.60852C14.4476 11.1193 16.4829 13.1546 18.9937 13.1546C21.5045 13.1546 23.5398 11.1193 23.5398 8.60852Z" fill="#D2402F"/>
</svg>
