<svg width="27" height="31" viewBox="0 0 27 31" fill="none" xmlns="http://www.w3.org/2000/svg">
<path d="M23.2426 3.68949C20.5223 3.21666 17.9345 1.66694 16.948 1.02249C15.9237 0.353356 14.7314 0 13.5003 0C12.2686 0 11.0763 0.353356 10.052 1.02249C9.06546 1.66694 6.47765 3.21666 3.75738 3.68949C1.58034 4.06808 0 5.8932 0 8.02904V14.8303C0 25.0535 12.0751 30.3847 12.5893 30.6068L13.5003 31L14.4107 30.6068C14.9249 30.3847 27 25.0535 27 14.8303V8.02904C27 5.8932 25.4197 4.06808 23.2426 3.68949ZM22.5379 14.8309C22.5379 20.8974 15.9516 24.9329 13.4962 26.2263C11.0357 24.9385 4.46214 20.9265 4.46214 14.8309V8.0296C4.46214 7.97912 4.49758 7.93762 4.54871 7.92864C7.97839 7.33242 11.0351 5.58135 12.5527 4.59027C12.8356 4.40517 13.1633 4.30758 13.5003 4.30758C13.8367 4.30758 14.1644 4.40517 14.4479 4.59027C15.9649 5.58079 19.0216 7.33242 22.4513 7.92864C22.5024 7.93762 22.5379 7.97912 22.5379 8.02904V14.8309Z" fill="#D2402F"/>
</svg>
