<svg width="32" height="22" viewBox="0 0 32 22" fill="none" xmlns="http://www.w3.org/2000/svg">
<path d="M10.373 21.6357H5.42188V5.87402L0.558594 7.29492V3.54492L9.91895 0.307617H10.373V21.6357Z" fill="#D2402F"/>
<path d="M26.5303 13.3887C25.4658 14.3457 24.2744 14.8242 22.9561 14.8242C21.0225 14.8242 19.4893 14.1699 18.3564 12.8613C17.2236 11.5527 16.6572 9.80469 16.6572 7.61719C16.6572 6.25 16.9746 4.98047 17.6094 3.80859C18.2441 2.63672 19.1328 1.70898 20.2754 1.02539C21.4277 0.341797 22.6973 0 24.084 0C25.4902 0 26.7598 0.356445 27.8926 1.06934C29.0352 1.77246 29.9238 2.77344 30.5586 4.07227C31.1934 5.36133 31.5205 6.85059 31.54 8.54004V10.4297C31.54 12.7832 31.0762 14.8242 30.1484 16.5527C29.2305 18.2812 27.917 19.6094 26.208 20.5371C24.499 21.4648 22.5068 21.9287 20.2314 21.9287H19.9238V17.9736L20.8613 17.959C24.2598 17.793 26.1494 16.2695 26.5303 13.3887ZM24.2891 11.2646C25.3633 11.2646 26.1348 10.8008 26.6035 9.87305V7.82227C26.6035 6.45508 26.374 5.44434 25.915 4.79004C25.4561 4.13574 24.8359 3.80859 24.0547 3.80859C23.3613 3.80859 22.7803 4.17969 22.3115 4.92188C21.8428 5.66406 21.6084 6.5625 21.6084 7.61719C21.6084 8.73047 21.8477 9.61914 22.3262 10.2832C22.8047 10.9375 23.459 11.2646 24.2891 11.2646Z" fill="#D2402F"/>
</svg>
