<svg width="12" height="20" viewBox="0 0 12 20" fill="none" xmlns="http://www.w3.org/2000/svg">
<path d="M10.7782 0.00416134L8.09187 0C5.07382 0 3.12343 1.9319 3.12343 4.92203V7.19141H0.422406C0.189005 7.19141 0 7.37409 0 7.59943V10.8875C0 11.1128 0.189221 11.2953 0.422406 11.2953H3.12343V19.5922C3.12343 19.8175 3.31244 20 3.54584 20H7.06991C7.30331 20 7.49231 19.8173 7.49231 19.5922V11.2953H10.6504C10.8838 11.2953 11.0728 11.1128 11.0728 10.8875L11.0741 7.59943C11.0741 7.49123 11.0295 7.38762 10.9504 7.31105C10.8713 7.23448 10.7636 7.19141 10.6515 7.19141H7.49231V5.26763C7.49231 4.34298 7.72054 3.87358 8.96815 3.87358L10.7778 3.87295C11.011 3.87295 11.2 3.69027 11.2 3.46514V0.411972C11.2 0.187052 11.0112 0.00457747 10.7782 0.00416134Z" fill="white"/>
</svg>
