<svg width="21" height="20" viewBox="0 0 21 20" fill="none" xmlns="http://www.w3.org/2000/svg">
<path d="M2.2002 0H18.2002C19.3002 0 20.2002 0.9 20.2002 2V18C20.2002 19.1 19.3002 20 18.2002 20H2.2002C1.10019 20 0.200195 19.1 0.200195 18V2C0.200195 0.9 1.10019 0 2.2002 0ZM10.2002 6C8.00019 6 6.20019 7.8 6.20019 10C6.20019 12.2 8.00019 14 10.2002 14C12.4002 14 14.2002 12.2 14.2002 10C14.2002 7.8 12.4002 6 10.2002 6ZM17.7002 18C18.0002 18 18.2002 17.8 18.2002 17.5V9H16.1002C16.2002 9.3 16.2002 9.7 16.2002 10C16.2002 13.3 13.5002 16 10.2002 16C6.9002 16 4.2002 13.3 4.2002 10C4.2002 9.7 4.20019 9.3 4.30019 9H2.2002V17.5C2.2002 17.8 2.40019 18 2.7002 18H17.7002ZM2.2002 4.5C2.2002 4.8 2.40019 5 2.7002 5H4.70019C5.00019 5 5.20019 4.8 5.20019 4.5V2.5C5.20019 2.2 5.00019 2 4.70019 2H2.7002C2.40019 2 2.2002 2.2 2.2002 2.5V4.5Z" fill="white"/>
</svg>
