<svg width="21" height="18" viewBox="0 0 21 18" fill="none" xmlns="http://www.w3.org/2000/svg">
<path d="M0.553455 8.4834L5.16186 10.231L6.9456 16.0593C7.05973 16.4326 7.509 16.5706 7.8072 16.3229L10.376 14.1952C10.6453 13.9723 11.0288 13.9612 11.3102 14.1687L15.9434 17.5864C16.2624 17.822 16.7143 17.6444 16.7943 17.2527L20.1884 0.665118C20.2757 0.237306 19.862 -0.119588 19.4611 0.0379628L0.548055 7.45092C0.0813208 7.6338 0.0853875 8.30519 0.553455 8.4834ZM6.65813 9.30068L15.6647 3.66468C15.8265 3.56369 15.9931 3.78606 15.8541 3.91706L8.42107 10.9371C8.1598 11.1842 7.99126 11.5149 7.94353 11.8738L7.69033 13.7803C7.6568 14.0348 7.30486 14.0601 7.23573 13.8137L6.26193 10.3372C6.1504 9.94071 6.31293 9.51717 6.65813 9.30068Z" fill="white"/>
</svg>
