<svg width="21" height="17" viewBox="0 0 21 17" fill="none" xmlns="http://www.w3.org/2000/svg">
<path d="M20.2002 1.9877C19.4641 2.32501 18.6742 2.55377 17.8444 2.65589C18.6917 2.13116 19.3404 1.29887 19.6478 0.310168C18.8529 0.796102 17.9756 1.14895 17.0407 1.34023C16.2922 0.514389 15.2273 0 14.0463 0C11.7805 0 9.94332 1.89984 9.94332 4.24168C9.94332 4.57381 9.97956 4.89821 10.0496 5.20841C6.64021 5.03132 3.61703 3.34216 1.59366 0.77542C1.23997 1.40096 1.03876 2.12984 1.03876 2.9079C1.03876 4.37996 1.76363 5.67883 2.86344 6.43874C2.19105 6.41549 1.55866 6.22421 1.00503 5.90627V5.95926C1.00503 8.01418 2.41977 9.7292 4.29566 10.1195C3.95197 10.2152 3.58955 10.2682 3.21461 10.2682C2.94968 10.2682 2.69347 10.241 2.44226 10.1893C2.96464 11.8759 4.47938 13.1024 6.27406 13.136C4.87056 14.2733 3.10089 14.9493 1.17876 14.9493C0.847582 14.9493 0.521372 14.9286 0.200195 14.8911C2.01611 16.0969 4.17197 16.8 6.48903 16.8C14.0364 16.8 18.1619 10.3354 18.1619 4.72893L18.1481 4.17966C18.9542 3.58511 19.6515 2.83811 20.2002 1.9877Z" fill="white"/>
</svg>
