<svg width="20" height="12" viewBox="0 0 20 12" fill="none" xmlns="http://www.w3.org/2000/svg">
<path fill-rule="evenodd" clip-rule="evenodd" d="M17.2129 7.33668C17.8763 7.99701 18.5765 8.61828 19.1715 9.34519C19.4344 9.66822 19.6832 10.0016 19.8736 10.3764C20.1433 10.9094 19.899 11.4958 19.4303 11.5276L16.5166 11.5263C15.7652 11.5898 15.1657 11.2814 14.6616 10.7576C14.2582 10.3387 13.8846 9.89291 13.4967 9.45988C13.3377 9.28289 13.1713 9.11635 12.9724 8.98472C12.5747 8.72151 12.2294 8.8021 12.0021 9.22501C11.7706 9.65516 11.7181 10.1315 11.6954 10.6108C11.6642 11.3103 11.4568 11.4942 10.7676 11.5262C9.29473 11.597 7.89691 11.3699 6.59838 10.6124C5.45355 9.94462 4.56579 9.00193 3.79308 7.93471C2.28861 5.85659 1.13649 3.57308 0.101007 1.22559C-0.132073 0.696702 0.0383836 0.412796 0.610798 0.402748C1.56132 0.383923 2.51171 0.385263 3.46334 0.401408C3.84966 0.407169 4.10541 0.633061 4.25458 1.00513C4.76884 2.29423 5.39809 3.52069 6.18794 4.65752C6.39829 4.96019 6.61277 5.26285 6.9182 5.47588C7.25609 5.71175 7.51335 5.63358 7.67231 5.24986C7.77317 5.00655 7.81733 4.74448 7.84007 4.48388C7.91537 3.58735 7.9253 2.69235 7.79321 1.79897C7.71213 1.2414 7.40407 0.880458 6.85834 0.774948C6.57985 0.721154 6.62131 0.61551 6.75615 0.45346C6.99035 0.173975 7.21062 0 7.6497 0H10.9426C11.461 0.104304 11.5761 0.341719 11.6471 0.873491L11.6499 4.60239C11.6442 4.80825 11.7508 5.41914 12.1145 5.5554C12.4056 5.6524 12.5975 5.41499 12.7721 5.22681C13.5605 4.37375 14.1232 3.36561 14.6259 2.32169C14.849 1.86267 15.0408 1.38597 15.2267 0.909666C15.3644 0.556223 15.5806 0.382315 15.9711 0.390019L19.1403 0.3929C19.2343 0.3929 19.3294 0.394307 19.4204 0.410184C19.9544 0.502966 20.1007 0.737165 19.9358 1.2688C19.6759 2.1029 19.1703 2.798 18.6759 3.49631C18.1473 4.24185 17.5821 4.96186 17.058 5.71182C16.5764 6.39667 16.6147 6.74187 17.2129 7.33668Z" fill="white"/>
</svg>
